Coordinates
version=1
nRows=15
nColumns=26
inDegrees=yes

Units are S.I. units (second, meters, Newtons, ...)
If the header above contains a line with 'inDegrees', this indicates whether rotational values are in degrees (yes) or radians (no).

endheader
time	pelvis_tilt	pelvis_list	pelvis_rotation	pelvis_tx	pelvis_ty	pelvis_tz	hip_flexion_r	hip_adduction_r	hip_rotation_r	knee_angle_r	knee_angle_r_beta	ankle_angle_r	subtalar_angle_r	mtp_angle_r	hip_flexion_l	hip_adduction_l	hip_rotation_l	knee_angle_l	knee_angle_l_beta	ankle_angle_l	subtalar_angle_l	mtp_angle_l	lumbar_ext	lumbar_bend	lumbar_rota
      2.52000000	     -6.21730965	     -2.29076769	     -4.81390982	      1.50421582	      1.01139926	     -0.38067062	     33.37168945	      4.71561873	     -3.89849245	     15.85635046	      0.27674552	    -26.74814144	     -6.13043907	      0.00000000	    -25.97997038	      3.23525578	     13.76419354	     10.90357739	      0.19030333	     -7.72373020	     34.27815959	      0.00000000	     -1.98354867	      5.80313563	    -13.26084310
      2.53000000	     -6.13724812	     -1.40104284	     -5.18304481	      1.50470544	      1.01163212	     -0.38026685	     32.49719485	      4.66540642	     -2.60007112	     11.04687049	      0.19280426	    -28.42041464	     -5.18605002	      0.00000000	    -26.25797432	      4.62401194	     15.92015183	     13.59722604	      0.23731636	     -7.68674144	     34.23520821	      0.00000000	     -2.10301533	      4.94388686	    -12.81365959
      2.54000000	     -5.58112373	     -0.60926245	     -5.31208057	      1.50516615	      1.01176636	     -0.37983825	     31.26769633	      4.47032549	     -0.80691688	      7.74252784	      0.13513260	    -28.30333751	     -4.12590006	      0.00000000	    -26.53105340	      5.86084632	     16.88491923	     17.05753830	      0.29771021	     -8.03833125	     34.19591442	      0.00000000	     -2.74993953	      4.05063706	    -12.52237437
      2.55000000	     -4.67787288	      0.33171039	     -5.41940344	      1.50500497	      1.01132398	     -0.37977519	     29.79323925	      3.95500954	      1.21127933	      5.63257752	      0.09830702	    -27.85869153	     -3.27329902	      0.00000000	    -26.40772535	      7.18673907	     16.37761416	     21.59862350	      0.37696709	     -8.68731634	     34.17351713	      0.00000000	     -3.98900637	      2.96546660	    -12.01192697
      2.56000000	     -3.46457417	      0.96540370	     -5.39099785	      1.50468556	      1.01072083	     -0.37954708	     27.97239159	      3.50972946	      3.08593317	      4.45735452	      0.07779551	    -27.84660943	     -2.40246040	      0.00000000	    -25.93832856	      7.95237971	     14.74478733	     27.08147894	      0.47266097	     -9.70012938	     34.17926781	      0.00000000	     -5.67143143	      2.21358186	    -11.54216977
      2.57000000	     -7.35755251	      9.79034195	    -13.22545463	      1.48970514	      0.99057474	     -0.36287876	     37.04133802	      1.64328149	     15.56733025	      9.01416962	      0.15732694	    -25.94016844	     -1.79598941	      0.00000000	    -16.37650357	     17.57898961	      5.67139443	     34.53657115	      0.60277688	    -13.35446753	     33.93795973	      0.00000000	     -0.78078825	     -8.65076606	     -3.55183340
      2.58000000	     -5.49098646	      9.52528373	    -13.15616280	      1.48951730	      0.98956263	     -0.36257194	     34.60251838	      1.51381601	     17.08165118	     10.09367542	      0.17616787	    -25.14173186	     -1.78042325	      0.00000000	    -15.54211072	     16.35525944	      2.00551027	     41.74980859	      0.72867162	    -13.39038187	     34.05476014	      0.00000000	     -3.41990048	     -8.73338693	     -3.45598632
      2.59000000	    -14.03814270	      4.49855488	     -0.28263601	      1.48156153	      0.96587810	     -0.39541415	     43.39439319	     -1.95558809	      3.44809536	     13.82275291	      0.24125255	    -21.84366605	      1.46542754	      0.00000000	      0.04023356	     10.15009013	      9.78619047	     60.82278011	      1.06155777	     -8.64532754	     33.85612361	      0.00000000	      3.41960868	      0.12411057	    -14.43156271
      2.60000000	     -2.82829490	      8.96260080	    -12.75006810	      1.48738834	      0.98109599	     -0.36314757	     31.03304624	      1.19526516	     16.87411867	     13.77109925	      0.24035102	    -24.60545725	      0.56927703	      0.00000000	    -12.14693479	     13.80048438	     -2.87301805	     56.54705611	      0.98693231	    -12.56035965	     33.82155366	      0.00000000	     -7.83996549	     -8.43004938	     -3.66363095
      2.61000000	     -1.49805165	      8.36997845	    -12.59233355	      1.48602451	      0.97558558	     -0.36339036	     28.97825509	      1.59053945	     17.87897940	     15.96702272	      0.27867712	    -25.25683841	     -0.68454836	      0.00000000	    -10.45868249	     11.89827012	     -5.12390260	     63.63927580	      1.11071490	    -11.71061968	     33.53214136	      0.00000000	    -10.09907284	     -7.89148736	     -3.34750237
      2.62000000	     -0.13419387	      7.53519921	    -12.51086696	      1.48453078	      0.96972231	     -0.36383432	     26.87124883	      2.46841929	     18.10978853	     19.71192818	      0.34403805	    -21.01432866	     -2.66303110	      0.00000000	     -8.91295317	      9.72344011	     -7.07778812	     70.24709215	      1.22604305	    -10.75841505	     32.97990066	      0.00000000	    -12.37261257	     -7.16187897	     -2.32268704
      2.63000000	    -10.67947467	      2.67338040	     -3.11633740	      1.47468002	      0.93636250	     -0.38709302	     39.40469044	      3.68823463	      7.05554304	     28.62406179	      0.49958412	    -10.94386303	     -4.93110090	      0.00000000	      8.98024418	      2.91071569	     -0.34981505	     86.31075958	      1.50640693	     -5.19078541	     31.91422833	      0.00000000	     -2.59170549	      2.27900042	     -8.33006354
      2.64000000	    -10.12447064	      0.73032713	     -5.17652786	      1.47087588	      0.92861139	     -0.37983834	     38.46660901	      7.96870042	      8.22122112	     32.59978957	      0.56897366	     -8.72661483	     -9.97256731	      0.00000000	      8.98093462	     -0.81108400	      2.34709119	     87.81610904	      1.53268024	    -28.07592926	    -34.80298556	      0.00000000	     -4.15966059	      3.91329583	     -4.99575020
      2.65000000	     -9.23975800	      0.70302825	     -3.83548494	      1.46816170	      0.92454510	     -0.38472117	     37.52365408	      7.18726831	      6.71299216	     37.35503568	      0.65196836	     -4.87724782	    -11.37269770	      0.00000000	     14.38736836	     -1.18882064	     -1.50617928	     96.66410834	      1.68710696	     -4.55297487	     29.65951119	      0.00000000	     -5.79361535	      4.45971157	     -5.56207673
      2.66000000	     -4.78543794	     -6.00599792	      2.81947529	      1.47161162	      0.93333361	     -0.39872075	     29.14057866	      9.59021513	     -1.62948050	     35.48732265	      0.61937062	     -3.59022304	    -11.65593448	      0.00000000	     11.24830011	     -4.98257749	     12.86654351	     96.84885169	      1.69033134	    -27.55584398	    -34.79443579	      0.00000000	    -10.36241736	     13.67631327	     -8.67992626
